Coordinates
nRows=8
nColumns=38

# SIMM Motion File Header:
name Coordinates
datacolumns 38
datarows 8
otherdata 1
range 0.42499999999999999000 0.43200000000000000000

Units are S.I. units (second, meters, Newtons, ...)
Angles are in degrees.

endheader
time	pelvis_tilt	pelvis_list	pelvis_rotation	pelvis_tx	pelvis_ty	pelvis_tz	hip_flexion_r	hip_adduction_r	hip_rotation_r	knee_angle_r	ankle_angle_r	subtalar_angle_r	mtp_angle_r	hip_flexion_l	hip_adduction_l	hip_rotation_l	knee_angle_l	ankle_angle_l	subtalar_angle_l	mtp_angle_l	lumbar_extension	lumbar_bending	lumbar_rotation	arm_flex_r	arm_add_r	arm_rot_r	elbow_flex_r	pro_sup_r	wrist_flex_r	wrist_dev_r	arm_flex_l	arm_add_l	arm_rot_l	elbow_flex_l	pro_sup_l	wrist_flex_l	wrist_dev_l
      0.42499999999999999000	     -5.53192493286150630000	     -0.08277043228891402300	      1.90720723576299210000	      0.73124916427255460000	      1.05120378070189920000	     -0.31593585898647208000	     24.57329883164430800000	      2.52981441225678600000	     -8.77399865922825310000	     -8.96505688167324700000	    -17.58012495375911400000	      0.00000000000000000000	      0.00000000000000000000	     -5.40149884986219500000	     -0.23378447289971316000	     -5.59296735651688070000	    -52.69933582988361600000	    -20.29814350307506000000	      0.00000000000000000000	      0.00000000000000000000	     -2.43686399739447300000	      1.17769059445334000000	    -14.69342498295464200000	    -32.90944437822179900000	    -20.53123969036477400000	     -2.46959894592657970000	     71.16785689286155000000	     75.05632025329205700000	      0.00000000000000000000	      0.00000000000000000000	     -1.59178109165405270000	    -32.00121636516991700000	     25.50512009890382000000	    116.82458576589187000000	     79.07747012078586100000	      0.00000000000000000000	      0.00000000000000000000
      0.42599999999999999000	     -5.51710423121282640000	     -0.08617450851169025600	      1.88231611889978940000	      0.73128510204528585000	      1.05069572500664110000	     -0.31581794488375192000	     24.53212444204085300000	      2.56543486648183320000	     -8.83664976355175650000	     -9.00142077073045320000	    -17.67300770816969200000	      0.00000000000000000241	     -0.00000000000000000052	     -5.26267464370700470000	     -0.27476699405654498000	     -5.60567572913083280000	    -53.21407694272232200000	    -20.20468813340906100000	     -0.00000000000000000002	      0.00000000000000000125	     -2.43526282249344960000	      1.20099589987022750000	    -14.63299288767487600000	    -32.83461135789428900000	    -20.52713534350218100000	     -2.46872253139901510000	     71.12991641015054300000	     75.01120945600878500000	      0.00000000000000000038	      0.00000000000000000057	     -1.69606358065236160000	    -31.95500985888194700000	     25.49886721089960800000	    116.64877999799742000000	     79.00091448072552700000	     -0.00000000000000000010	     -0.00000000000000000055
      0.42699999999999999000	     -5.50218367033581490000	     -0.09060686756227133400	      1.85708604252679390000	      0.73131886545750879000	      1.05017843477856230000	     -0.31569981950608172000	     24.49226169322175700000	      2.60246947462201070000	     -8.88964155342536520000	     -9.04735535476755540000	    -17.75803935376533400000	      0.00000000000000000598	     -0.00000000000000000248	     -5.12206272932424870000	     -0.31633725715660277000	     -5.61751814831182990000	    -53.72960881444833300000	    -20.10780250818654100000	     -0.00000000000000000024	      0.00000000000000000552	     -2.43409159446008650000	      1.22568285764976430000	    -14.57175093001433700000	    -32.75863474915306700000	    -20.52350677476640000000	     -2.46772601697255430000	     71.09230367177151800000	     74.96943483517671300000	      0.00000000000000000142	      0.00000000000000000123	     -1.80084654358377110000	    -31.90816061728720500000	     25.49162713261607400000	    116.47136159733689000000	     78.92595298320070200000	     -0.00000000000000000020	     -0.00000000000000000210
      0.42799999999999999000	     -5.48712970367746160000	     -0.09608564003240537000	      1.83148163204510080000	      0.73135050922940803000	      1.04965203648527860000	     -0.31558157150785837000	     24.45367715990727900000	      2.64088313136881720000	     -8.93352151332267220000	     -9.10284816904468560000	    -17.83736758807803500000	      0.00000000000000001052	     -0.00000000000000000331	     -4.97975491271907080000	     -0.35848912443958447000	     -5.62852822562055800000	    -54.24580777769927000000	    -20.00746560186779600000	     -0.00000000000000000020	      0.00000000000000001016	     -2.43338159288998000000	      1.25179843594921360000	    -14.50963561812303100000	    -32.68156593279935200000	    -20.52038447291177900000	     -2.46665452284582360000	     71.05508289858183000000	     74.93101354877391900000	      0.00000000000000000258	      0.00000000000000000355	     -1.90606805023448760000	    -31.86065040654834500000	     25.48348640778144200000	    116.29232983201238000000	     78.85271184321838700000	     -0.00000000000000000030	     -0.00000000000000000288
      0.42899999999999999000	     -5.47188632934483720000	     -0.10257915693004435000	      1.80550717147958650000	      0.73138016874244993000	      1.04911660323448430000	     -0.31546330939963951000	     24.41628471836249400000	      2.68063571746974550000	     -8.96823815640382630000	     -9.16791386603692440000	    -17.90988996814633100000	      0.00000000000000001808	     -0.00000000000000000443	     -4.83587995672422280000	     -0.40116982155899056000	     -5.63870018999664600000	    -54.76253168991790000000	    -19.90365079879550300000	     -0.00000000000000000113	      0.00000000000000001937	     -2.43317864133987080000	      1.27932970755310320000	    -14.44661547605925600000	    -32.60349047677183900000	    -20.51778130273741500000	     -2.46556710783189060000	     71.01835572623801300000	     74.89596879222253300000	      0.00000000000000000365	      0.00000000000000000636	     -2.01166522904182040000	    -31.81250089686288600000	     25.47455177190193300000	    116.11172116535525000000	     78.78131033137826500000	     -0.00000000000000000005	     -0.00000000000000000316
      0.42999999999999999000	     -5.45639339473901240000	     -0.11006573770892572000	      1.77918676334184610000	      0.73140796177684397000	      1.04857223288146080000	     -0.31534517665972106000	     24.37999660227475800000	      2.72168105971356810000	     -8.99389919200524620000	     -9.24256362479252760000	    -17.97492241027571000000	      0.00000000000000002456	     -0.00000000000000000495	     -4.69056146279706530000	     -0.44434111589308289000	     -5.64801359196135970000	    -55.27965149706372500000	    -19.79634155419681800000	     -0.00000000000000000224	      0.00000000000000002973	     -2.43353469677050380000	      1.30827576663983130000	    -14.38267785285432900000	    -32.52448696030850800000	    -20.51571045050706800000	     -2.46452076650450950000	     70.98222111128833900000	     74.86431567962090100000	      0.00000000000000000538	      0.00000000000000000893	     -2.11757418977572740000	    -31.76373391712601400000	     25.46493002963414700000	    115.92956800265162000000	     78.71185955278467400000	      0.00000000000000000038	     -0.00000000000000000409
      0.43099999999999999000	     -5.44056137724809390000	     -0.11852186140306413000	      1.75254510612509320000	      0.73143400929785429000	      1.04801907336057030000	     -0.31522731137422688000	     24.34469215519078800000	      2.76397523396361680000	     -9.01062733809943240000	     -9.32680487004718200000	    -18.03167417785503100000	      0.00000000000000002869	     -0.00000000000000000602	     -4.54395701168411570000	     -0.48796676956283797000	     -5.65645239694880080000	    -55.79703398066111900000	    -19.68553616704275200000	     -0.00000000000000000354	      0.00000000000000003742	     -2.43453627219136150000	      1.33863363900375790000	    -14.31780986483637700000	    -32.44462746648301300000	    -20.51418259637752300000	     -2.46357059010511480000	     70.94678086826579000000	     74.83606085832873600000	      0.00000000000000000722	      0.00000000000000001227	     -2.22372549816472050000	    -31.71437882378418000000	     25.45472859395860600000	    115.74590489602778000000	     78.64445564098963400000	      0.00000000000000000112	     -0.00000000000000000533
      0.43200000000000000000	     -5.42422187388567690000	     -0.12792608550187398000	      1.72560192769419500000	      0.73145844951152850000	      1.04745741337210400000	     -0.31510983815787696000	     24.31015738657064100000	      2.80748260693575480000	     -9.01858721669050390000	     -9.42062648065427410000	    -18.07937040754814400000	      0.00000000000000003006	     -0.00000000000000000790	     -4.39632001477218900000	     -0.53201842285183398000	     -5.66401265416521760000	    -56.31452566742304100000	    -19.57125271265600500000	     -0.00000000000000000371	      0.00000000000000004298	     -2.43636198859549190000	      1.37040440326009390000	    -14.25199272205433600000	    -32.36396844653984300000	    -20.51320601260697500000	     -2.46276798312039660000	     70.91214093881082200000	     74.81120051715376500000	      0.00000000000000000974	      0.00000000000000001469	     -2.33003146035728290000	    -31.66447508748951400000	     25.44405692380997400000	    115.56076844656967000000	     78.57917548636623900000	      0.00000000000000000216	     -0.00000000000000000591
